{
  "accessors": [
    {
      "bufferView": 2,
      "componentType": 5126,
      "count": 24,
      "max": [
        14.60738468170166,
        -9.0699996948242188,
        4.090400218963623
      ],
      "min": [
        10.744614601135254,
        -10.069999694824219,
        2.7695999145507812
      ],
      "type": "VEC3"
    },
    {
      "bufferView": 2,
      "byteOffset": 288,
      "componentType": 5126,
      "count": 24,
      "max": [
        1,
        1,
        1
      ],
      "min": [
        -1,
        -1,
        -1
      ],
      "type": "VEC3"
    },
    {
      "bufferView": 1,
      "componentType": 5126,
      "count": 24,
      "max": [
        0.38627699017524719,
        0.10000000149011612
      ],
      "min": [
        -0.19313900172710419,
        -0.066040001809597015
      ],
      "type": "VEC2"
    },
    {
      "bufferView": 0,
      "componentType": 5125,
      "count": 36,
      "max": [
        23
      ],
      "min": [
        0
      ],
      "type": "SCALAR"
    },
    {
      "bufferView": 2,
      "byteOffset": 576,
      "componentType": 5126,
      "count": 3306,
      "max": [
        51.537998199462891,
        -7.5,
        83.694000244140625
      ],
      "min": [
        1.5,
        -9.0699996948242188,
        -8
      ],
      "type": "VEC3"
    },
    {
      "bufferView": 2,
      "byteOffset": 40248,
      "componentType": 5126,
      "count": 3306,
      "max": [
        1,
        1,
        1
      ],
      "min": [
        -1,
        -1,
        -1
      ],
      "type": "VEC3"
    },
    {
      "bufferView": 1,
      "byteOffset": 192,
      "componentType": 5126,
      "count": 3306,
      "max": [
        8.5598001480102539,
        4.5847001075744629
      ],
      "min": [
        -2.5018999576568604,
        -4.5847001075744629
      ],
      "type": "VEC2"
    },
    {
      "bufferView": 0,
      "byteOffset": 144,
      "componentType": 5125,
      "count": 10596,
      "max": [
        3305
      ],
      "min": [
        0
      ],
      "type": "SCALAR"
    },
    {
      "bufferView": 2,
      "byteOffset": 79920,
      "componentType": 5126,
      "count": 3050,
      "max": [
        49.426998138427734,
        -7.5,
        80.692001342773438
      ],
      "min": [
        2.8715000152587891,
        -9.0699996948242188,
        -2.9119999408721924
      ],
      "type": "VEC3"
    },
    {
      "bufferView": 2,
      "byteOffset": 116520,
      "componentType": 5126,
      "count": 3050,
      "max": [
        1,
        -0,
        1
      ],
      "min": [
        -1,
        -0,
        -1
      ],
      "type": "VEC3"
    },
    {
      "bufferView": 1,
      "byteOffset": 26640,
      "componentType": 5126,
      "count": 3050,
      "max": [
        0.15700000524520874,
        0.31415900588035583
      ],
      "min": [
        0,
        -0.31415900588035583
      ],
      "type": "VEC2"
    },
    {
      "bufferView": 0,
      "byteOffset": 42528,
      "componentType": 5125,
      "count": 8784,
      "max": [
        3049
      ],
      "min": [
        0
      ],
      "type": "SCALAR"
    },
    {
      "bufferView": 2,
      "byteOffset": 153120,
      "componentType": 5126,
      "count": 192,
      "max": [
        50.163894653320312,
        -9.0699996948242188,
        81.711997985839844
      ],
      "min": [
        2.6201050281524658,
        -10.069999694824219,
        -3.6819999217987061
      ],
      "type": "VEC3"
    },
    {
      "bufferView": 2,
      "byteOffset": 155424,
      "componentType": 5126,
      "count": 192,
      "max": [
        1,
        1,
        1
      ],
      "min": [
        -1,
        -1,
        -1
      ],
      "type": "VEC3"
    },
    {
      "bufferView": 1,
      "byteOffset": 51040,
      "componentType": 5126,
      "count": 192,
      "max": [
        4.7543787956237793,
        0.8255000114440918
      ],
      "min": [
        -2.3771889209747314,
        -0.8255000114440918
      ],
      "type": "VEC2"
    },
    {
      "bufferView": 0,
      "byteOffset": 77664,
      "componentType": 5125,
      "count": 288,
      "max": [
        191
      ],
      "min": [
        0
      ],
      "type": "SCALAR"
    },
    {
      "bufferView": 2,
      "byteOffset": 157728,
      "componentType": 5126,
      "count": 192,
      "max": [
        49.658401489257812,
        -9.0699996948242188,
        67.0823974609375
      ],
      "min": [
        2.6175999641418457,
        -10.069999694824219,
        2.7695999145507812
      ],
      "type": "VEC3"
    },
    {
      "bufferView": 2,
      "byteOffset": 160032,
      "componentType": 5126,
      "count": 192,
      "max": [
        1,
        1,
        1
      ],
      "min": [
        -1,
        -1,
        -1
      ],
      "type": "VEC3"
    },
    {
      "bufferView": 1,
      "byteOffset": 52576,
      "componentType": 5126,
      "count": 192,
      "max": [
        1.1480799913406372,
        0.10000000149011612
      ],
      "min": [
        -0.5740399956703186,
        -0.066040001809597015
      ],
      "type": "VEC2"
    },
    {
      "bufferView": 0,
      "byteOffset": 78816,
      "componentType": 5125,
      "count": 288,
      "max": [
        191
      ],
      "min": [
        0
      ],
      "type": "SCALAR"
    },
    {
      "bufferView": 2,
      "byteOffset": 162336,
      "componentType": 5126,
      "count": 72,
      "max": [
        46.407199859619141,
        -9.0699996948242188,
        26.748260498046875
      ],
      "min": [
        28.220800399780273,
        -10.069999694824219,
        22.022800445556641
      ],
      "type": "VEC3"
    },
    {
      "bufferView": 2,
      "byteOffset": 163200,
      "componentType": 5126,
      "count": 72,
      "max": [
        1,
        1,
        1
      ],
      "min": [
        -1,
        -1,
        -1
      ],
      "type": "VEC3"
    },
    {
      "bufferView": 1,
      "byteOffset": 54112,
      "componentType": 5126,
      "count": 72,
      "max": [
        0.34554600715637207,
        0.10000000149011612
      ],
      "min": [
        -0.17277300357818604,
        -0.071120001375675201
      ],
      "type": "VEC2"
    },
    {
      "bufferView": 0,
      "byteOffset": 79968,
      "componentType": 5125,
      "count": 108,
      "max": [
        71
      ],
      "min": [
        0
      ],
      "type": "SCALAR"
    },
    {
      "bufferView": 2,
      "byteOffset": 164064,
      "componentType": 5126,
      "count": 9934,
      "max": [
        87.926506042480469,
        0.0046660001389682293,
        101.26972198486328
      ],
      "min": [
        -20.521030426025391,
        -43.094406127929688,
        -35.146728515625
      ],
      "type": "VEC3"
    },
    {
      "bufferView": 2,
      "byteOffset": 283272,
      "componentType": 5126,
      "count": 9934,
      "max": [
        1,
        1,
        1
      ],
      "min": [
        -1,
        -1,
        -1
      ],
      "type": "VEC3"
    },
    {
      "bufferView": 1,
      "byteOffset": 54688,
      "componentType": 5126,
      "count": 9934,
      "max": [
        18.670417785644531,
        14.762089729309082
      ],
      "min": [
        -20.519733428955078,
        -6.4318981170654297
      ],
      "type": "VEC2"
    },
    {
      "bufferView": 0,
      "byteOffset": 80400,
      "componentType": 5125,
      "count": 43587,
      "max": [
        9933
      ],
      "min": [
        0
      ],
      "type": "SCALAR"
    },
    {
      "bufferView": 2,
      "byteOffset": 402480,
      "componentType": 5126,
      "count": 1445,
      "max": [
        28.424999237060547,
        -7.7680249214172363,
        85.051803588867188
      ],
      "min": [
        -14.035941123962402,
        -32.368026733398438,
        33.182975769042969
      ],
      "type": "VEC3"
    },
    {
      "bufferView": 2,
      "byteOffset": 419820,
      "componentType": 5126,
      "count": 1445,
      "max": [
        1,
        1,
        1
      ],
      "min": [
        -1,
        -1,
        -1
      ],
      "type": "VEC3"
    },
    {
      "bufferView": 1,
      "byteOffset": 134160,
      "componentType": 5126,
      "count": 1445,
      "max": [
        7.9082999229431152,
        3.864159107208252
      ],
      "min": [
        -5.5501060485839844,
        -3.864159107208252
      ],
      "type": "VEC2"
    },
    {
      "bufferView": 0,
      "byteOffset": 254748,
      "componentType": 5125,
      "count": 5826,
      "max": [
        1444
      ],
      "min": [
        0
      ],
      "type": "SCALAR"
    }
  ],
  "asset": {
    "extras": {
      "author": "jasontsemf (https://sketchfab.com/jason1996429)",
      "license": "CC-BY-4.0 (http://creativecommons.org/licenses/by/4.0/)",
      "source": "https://sketchfab.com/3d-models/optimice-e618ce8bb9cf4eeea84d53ed7d16d28d",
      "title": "OptiMice"
    },
    "generator": "Sketchfab-8.0.0",
    "version": "2.0"
  },
  "bufferViews": [
    {
      "buffer": 0,
      "byteLength": 278052,
      "byteOffset": 0,
      "name": "floatBufferViews",
      "target": 34963
    },
    {
      "buffer": 0,
      "byteLength": 145720,
      "byteOffset": 278052,
      "byteStride": 8,
      "name": "floatBufferViews",
      "target": 34962
    },
    {
      "buffer": 0,
      "byteLength": 437160,
      "byteOffset": 423772,
      "byteStride": 12,
      "name": "floatBufferViews",
      "target": 34962
    }
  ],
  "buffers": [
    {
      "byteLength": 860932,
      "uri": "scene.bin"
    }
  ],
  "materials": [
    {
      "doubleSided": true,
      "name": "Opaque12011070",
      "pbrMetallicRoughness": {
        "baseColorFactor": [
          1,
          1,
          1,
          1
        ],
        "metallicFactor": 0,
        "roughnessFactor": 0.59999999999999998
      }
    },
    {
      "doubleSided": true,
      "name": "Opaque202020",
      "pbrMetallicRoughness": {
        "baseColorFactor": [
          1,
          1,
          1,
          1
        ],
        "metallicFactor": 0,
        "roughnessFactor": 0.60537347560975607
      }
    },
    {
      "doubleSided": true,
      "name": "Opaque2151515",
      "pbrMetallicRoughness": {
        "baseColorFactor": [
          1,
          1,
          1,
          1
        ],
        "metallicFactor": 0,
        "roughnessFactor": 0.59999999999999998
      }
    },
    {
      "doubleSided": true,
      "name": "Opaque23014020",
      "pbrMetallicRoughness": {
        "baseColorFactor": [
          1,
          1,
          1,
          1
        ],
        "metallicFactor": 0,
        "roughnessFactor": 0.59999999999999998
      }
    },
    {
      "doubleSided": true,
      "name": "Opaque33111174",
      "pbrMetallicRoughness": {
        "baseColorFactor": [
          1,
          1,
          1,
          1
        ],
        "metallicFactor": 0,
        "roughnessFactor": 0.59999999999999998
      }
    },
    {
      "doubleSided": true,
      "name": "Prism_Opaque",
      "pbrMetallicRoughness": {
        "baseColorFactor": [
          1,
          1,
          1,
          1
        ],
        "metallicFactor": 0,
        "roughnessFactor": 0.59999999999999998
      }
    },
    {
      "doubleSided": true,
      "name": "Steel_-_Satin",
      "pbrMetallicRoughness": {
        "baseColorFactor": [
          1,
          1,
          1,
          1
        ],
        "metallicFactor": 0,
        "roughnessFactor": 0.59999999999999998
      }
    }
  ],
  "meshes": [
    {
      "primitives": [
        {
          "attributes": {
            "NORMAL": 1,
            "POSITION": 0,
            "TEXCOORD_0": 2
          },
          "indices": 3,
          "material": 1,
          "mode": 4
        }
      ]
    },
    {
      "primitives": [
        {
          "attributes": {
            "NORMAL": 5,
            "POSITION": 4,
            "TEXCOORD_0": 6
          },
          "indices": 7,
          "material": 0,
          "mode": 4
        }
      ]
    },
    {
      "primitives": [
        {
          "attributes": {
            "NORMAL": 9,
            "POSITION": 8,
            "TEXCOORD_0": 10
          },
          "indices": 11,
          "material": 5,
          "mode": 4
        }
      ]
    },
    {
      "primitives": [
        {
          "attributes": {
            "NORMAL": 13,
            "POSITION": 12,
            "TEXCOORD_0": 14
          },
          "indices": 15,
          "material": 2,
          "mode": 4
        }
      ]
    },
    {
      "primitives": [
        {
          "attributes": {
            "NORMAL": 17,
            "POSITION": 16,
            "TEXCOORD_0": 18
          },
          "indices": 19,
          "material": 3,
          "mode": 4
        }
      ]
    },
    {
      "primitives": [
        {
          "attributes": {
            "NORMAL": 21,
            "POSITION": 20,
            "TEXCOORD_0": 22
          },
          "indices": 23,
          "material": 4,
          "mode": 4
        }
      ]
    },
    {
      "primitives": [
        {
          "attributes": {
            "NORMAL": 25,
            "POSITION": 24,
            "TEXCOORD_0": 26
          },
          "indices": 27,
          "material": 6,
          "mode": 4
        }
      ]
    },
    {
      "primitives": [
        {
          "attributes": {
            "NORMAL": 29,
            "POSITION": 28,
            "TEXCOORD_0": 30
          },
          "indices": 31,
          "material": 6,
          "mode": 4
        }
      ]
    }
  ],
  "nodes": [
    {
      "children": [
        1
      ],
      "name": "RootNode (gltf orientation matrix)",
      "rotation": [
        -0.70710678118654746,
        -0,
        -0,
        0.70710678118654757
      ]
    },
    {
      "children": [
        2
      ],
      "matrix": [
        -0.65736603736877441,
        0.6857944130897522,
        0.31233933568000793,
        0,
        0.11941353231668472,
        0.50404125452041626,
        -0.85538458824157715,
        0,
        -0.74404990673065186,
        -0.52500325441360474,
        -0.41323274374008179,
        0,
        83.030097961425781,
        -16.44120979309082,
        17.767688751220703,
        1
      ],
      "name": "RootNode (model correction matrix)"
    },
    {
      "children": [
        3,
        4,
        5,
        6,
        7,
        8,
        9,
        10
      ],
      "name": "opti v19.obj.cleaner.materialmerger.gles"
    },
    {
      "mesh": 0,
      "name": ""
    },
    {
      "mesh": 1,
      "name": ""
    },
    {
      "mesh": 2,
      "name": ""
    },
    {
      "mesh": 3,
      "name": ""
    },
    {
      "mesh": 4,
      "name": ""
    },
    {
      "mesh": 5,
      "name": ""
    },
    {
      "mesh": 6,
      "name": ""
    },
    {
      "mesh": 7,
      "name": ""
    }
  ],
  "scene": 0,
  "scenes": [
    {
      "name": "OSG_Scene",
      "nodes": [
        0
      ]
    }
  ]
}

